@startuml
class BaseCharacter {
    -UConditionComponent* ConditionComponent;
    -UHealthComponent* HealthComponent;
    -UCombatComponent* CombatComponent;
}

class SigurdCharacter {

}

class UConditionComponent {
UConditionHandler* conditionHandler
}

class UCombatComponent {}

class UConditionHandler {
	-UHealthComponent* HealthComponent;
	-UConditionComponent* ConditionComponent;
	-UCharacterMovementComponent* MovementComponent;
    Reactions()
}

BaseCharacter <|-left- SigurdCharacter

BaseCharacter *-- UCombatComponent
BaseCharacter *-- UHealthComponent
BaseCharacter *-- UConditionComponent

UConditionComponent *-- UConditionHandler

@enduml